
<svg width="300" height="300" version="1.1" viewBox="150 120 350 290" xmlns="http://www.w3.org/2000/svg" xmlns:xlink="http://www.w3.org/1999/xlink">
  <path d="m494.48 194.43c-1.0664-1.2461-2.6211-1.9609-4.2578-1.9609h-278.32l-5.6016-31.078 0.003907-0.003906c-0.42578-2.4219-2.3789-4.2812-4.8164-4.5898l-44.801-5.6016c-3.0938-0.38672-5.9141 1.8086-6.3008 4.9023-0.38672 3.0898 1.8086 5.9102 4.9023 6.2969l40.992 5.0977 35.449 203.28h-0.003907c0.46875 2.7148 2.8438 4.6875 5.6016 4.6484h30.129v4.0312c-8.9219 1.8633-16.332 8.043-19.766 16.488-3.4375 8.4414-2.4453 18.039 2.6445 25.602 5.0898 7.5625 13.605 12.098 22.719 12.098 9.1172 0 17.633-4.5352 22.723-12.098 5.0859-7.5625 6.0781-17.16 2.6445-25.602-3.4336-8.4453-10.844-14.625-19.766-16.488v-4.2578h146.38v4.0312c-8.9219 1.8672-16.332 8.0469-19.766 16.488-3.4336 8.4453-2.4414 18.043 2.6445 25.605 5.0898 7.5625 13.605 12.098 22.723 12.098 9.1133 0 17.633-4.5352 22.719-12.098 5.0898-7.5625 6.082-17.16 2.6484-25.605-3.4375-8.4414-10.844-14.621-19.77-16.488v-4.0312h27.387c3.0898 0 5.5977-2.5078 5.5977-5.5977 0-3.0938-2.5078-5.6016-5.5977-5.6016h-221.76l-3.1914-18.367h230.5c2.793 0.03125 5.1797-2 5.6016-4.7617l20.832-141.96c0.28516-1.582-0.12109-3.2148-1.1211-4.4766zm-205.41 211.68c0 4.2891-1.7031 8.4062-4.7383 11.441-3.0352 3.0352-7.1523 4.7422-11.445 4.7422-4.2891 0-8.4062-1.707-11.441-4.7422-3.0352-3.0352-4.7422-7.1523-4.7422-11.441 0-4.293 1.707-8.4102 4.7422-11.445 3.0352-3.0352 7.1523-4.7383 11.441-4.7383 4.293 0 8.4102 1.7031 11.445 4.7383 3.0352 3.0352 4.7383 7.1523 4.7383 11.445zm157.7 0h0.003906c0 4.2891-1.707 8.4062-4.7422 11.441-3.0352 3.0352-7.1523 4.7422-11.441 4.7422-4.293 0-8.4102-1.707-11.445-4.7422-3.0352-3.0352-4.7422-7.1523-4.7422-11.441 0-4.293 1.707-8.4102 4.7422-11.445 3.0352-3.0352 7.1523-4.7383 11.445-4.7383 4.2891 0 8.4062 1.7031 11.441 4.7383 3.0352 3.0352 4.7422 7.1523 4.7422 11.445zm17.586-71.566-227.64-0.003906-22.848-130.87h269.86zm-143.98-37.355c-1.8438-0.003906-3.5664-0.91797-4.6055-2.4375-1.0391-1.5234-1.2656-3.457-0.60156-5.1797 3.5859-9.1289 10.707-16.426 19.746-20.234 9.0352-3.8086 19.23-3.8086 28.27 0 9.0391 3.8086 16.16 11.105 19.746 20.234 0.61719 1.3984 0.64062 2.9883 0.058593 4.3984-0.57812 1.4141-1.7109 2.5273-3.1328 3.0859s-3.0117 0.51172-4.3984-0.12891c-1.3828-0.64063-2.4492-1.8203-2.9453-3.2656-1.8516-4.7227-5.0898-8.7734-9.2891-11.621-4.1953-2.8516-9.1562-4.3633-14.23-4.3398-5.0469-0.03125-9.9844 1.4727-14.156 4.3125-4.168 2.8438-7.3789 6.8867-9.1953 11.594-0.83984 2.1719-2.9336 3.5977-5.2656 3.582zm10.305-47.207c-0.11328 3.5938-2.3789 6.7656-5.7383 8.043-3.3633 1.2734-7.1641 0.40234-9.6328-2.2109-2.4688-2.6133-3.125-6.4531-1.6602-9.7383 1.4609-3.2852 4.7578-5.3672 8.3516-5.2773 2.3711 0.058594 4.6211 1.0586 6.25 2.7852 1.6328 1.7227 2.5039 4.0273 2.4297 6.3984zm54.543 0c-0.10938 3.5664-2.3438 6.7227-5.6719 8.0195-3.3281 1.293-7.1055 0.47266-9.6016-2.082-2.4922-2.5547-3.2188-6.3555-1.8398-9.6484 1.375-3.293 4.5859-5.4492 8.1562-5.4727 2.418-0.015625 4.7422 0.95312 6.4336 2.6836 1.6875 1.7344 2.6016 4.082 2.5234 6.5z" fill="#010101"/>
</svg>
