<?xml version="1.0" standalone="no"?>
<!DOCTYPE svg PUBLIC "-//W3C//DTD SVG 20010904//EN"
 "http://www.w3.org/TR/2001/REC-SVG-20010904/DTD/svg10.dtd">
<svg version="1.0" xmlns="http://www.w3.org/2000/svg"
 width="1280.000000pt" height="926.000000pt" viewBox="0 0 1280.000000 926.000000"
 preserveAspectRatio="xMidYMid meet">

<g transform="translate(0.000000,926.000000) scale(0.100000,-0.100000)"
fill="#000000" stroke="none">
<path d="M0 4630 l0 -4630 710 0 710 0 2 3450 3 3450 355 -246 c195 -136 414
-288 486 -338 71 -50 368 -257 660 -459 291 -203 759 -528 1039 -723 281 -196
663 -462 850 -591 187 -130 457 -318 600 -418 773 -540 959 -666 974 -662 9 2
111 69 226 149 116 79 248 171 295 203 47 32 150 104 230 159 80 55 384 264
675 465 292 200 566 389 610 420 44 30 143 98 220 151 77 53 381 262 675 465
294 203 564 389 600 413 36 25 142 98 235 162 94 64 396 273 673 463 277 191
506 347 508 347 2 0 4 -1543 4 -3430 l0 -3430 730 0 730 0 0 4630 0 4630 -521
0 -521 0 -31 -22 c-35 -24 -965 -709 -1112 -818 -49 -37 -288 -212 -530 -390
-242 -178 -532 -392 -645 -475 -113 -83 -317 -234 -455 -335 -137 -101 -333
-245 -435 -320 -102 -75 -315 -233 -475 -350 -159 -117 -339 -250 -400 -295
-60 -45 -189 -139 -285 -210 -96 -71 -258 -190 -360 -265 -558 -411 -639 -470
-648 -470 -6 0 -266 190 -579 421 -312 232 -638 474 -725 538 -86 64 -230 170
-320 237 -187 139 -569 422 -803 596 -88 65 -779 577 -1535 1138 l-1375 1020
-522 0 -523 0 0 -4630z"/>
</g>
</svg>
