<?xml version="1.0" encoding="UTF-8"?>
<!DOCTYPE svg PUBLIC "-//W3C//DTD SVG 1.1//EN" "http://www.w3.org/Graphics/SVG/1.1/DTD/svg11.dtd">
<svg viewBox="0 0 763.27 745.26" xmlns="http://www.w3.org/2000/svg">
 <circle cx="431.89" cy="331.4" r="331.38" fill="#75c315"/>
 <circle cx="431.17" cy="330.21" r="322.78" fill="#efa"/>
 <circle cx="432.94" cy="331.71" r="272.86" fill="#aad400"/>
 <path d="m413.44 383.58c-10.898 24.579-22.492 52.173-27.826 63.999-9.9708 21.797-28.057 57.042-42.202 88.346-3.0144 6.7245-9.9708 28.985 12.29 40.347 17.855 9.0433 43.362 15.304 66.086 15.304 23.884 0 55.187-4.8695 78.375-12.753 30.84-11.826 22.724-32.231 15.768-46.376-12.522-25.043-27.826-54.26-35.941-70.26-7.4202-14.608-19.71-45.217-30.84-73.274-6.0289-15.768-10.898-36.173-18.318-35.709-5.797.2319-10.203 13.681-17.391 30.376zm75.13-41.97c26.898 7.4202 57.274 15.536 72.81 20.174 19.246 5.797 54.956 17.159 83.94 26.202 18.318 5.3332 33.391 5.797 38.956-10.666 5.1014-15.536 7.652-34.318 7.8839-40.347.2319-7.1883-.9275-30.608-5.5651-51.014-7.1883-27.13-19.942-26.898-29.681-24.115-11.13 3.7101-24.811 8.3477-38.492 13.217-27.594 9.5071-55.651 19.942-69.564 24.811-17.159 5.797-44.289 14.145-67.245 21.333-13.449 4.1738-21.101 5.3332-21.333 9.2752 0 4.1738 8.5796 5.797 28.289 10.898zm-24.35 41.05c11.594 26.666 25.275 56.115 29.912 65.854 8.5796 17.391 22.956 46.84 36.173 72.115 9.9708 20.174 27.13 28.289 44.521 20.174 19.246-9.2752 33.391-17.391 43.593-28.521 15.072-16.463 25.275-32.231 38.492-57.042 11.362-24.115 4.4057-41.738-16.695-48.463-25.971-8.3477-58.434-18.087-73.97-22.724-11.826-3.4782-44.057-13.913-74.433-23.884-23.884-7.8839-33.854-13.913-38.492-9.9708-4.4057 3.942 1.855 12.29 10.898 32.463zm17.39-74.44c23.652-8.5796 49.39-18.318 62.376-22.724 20.869-6.9564 67.709-23.652 101.56-35.709 16.232-5.3332 19.942-6.4926 18.087-24.579-1.6232-12.985-6.9564-26.202-8.8114-29.681-2.5507-4.1738-12.522-17.391-24.115-27.13-12.753-9.5071-21.797-9.2752-27.362-3.942-9.0433 8.5796-21.101 20.405-33.391 32.695-19.478 19.478-38.492 38.724-47.303 47.767-16 15.768-36.869 36.173-53.332 52.637-11.826 12.29-15.768 15.768-13.913 18.55 1.855 3.0144 12.29-3.0144 26.202-7.8839zm-49.62-34.55c3.2463-25.739 6.4926-54.028 8.5796-67.245 4.4057-26.666 10.435-69.332 15.304-102.72 1.3913-10.666-1.3913-23.42-24.116-27.594-19.71-3.7101-34.782-5.1014-46.84-2.7826-12.29 2.5507-31.072 10.898-39.883 17.391-7.652 5.5651-19.71 14.377-7.4202 38.028 3.2463 6.4926 6.9564 13.449 10.898 21.101 11.362 21.565 22.492 42.666 27.594 53.332 6.7245 13.449 20.405 42.898 33.159 68.868 8.8114 18.55 12.985 30.608 16.463 30.376 4.6376-.4637 3.4782-8.3477 6.2608-28.753zm34.78 9.05c19.246-20.869 41.275-44.985 54.724-58.434 16.463-16.232 38.724-39.651 64.926-64.694 9.739-9.739 9.2752-22.26.9275-34.086-11.13-14.84-31.768-24.811-36.869-27.362-5.797-2.7826-27.594-9.2752-47.303-11.13-19.014 0-29.449 11.826-31.072 22.724-3.942 25.507-8.3477 57.274-11.594 79.767-2.0869 15.072-7.652 48.463-12.522 78.607-4.1738 23.188-7.8839 34.086-4.4057 36.173 3.942 2.3188 9.0433-6.2608 22.956-21.565zm-66.55-.47c-11.826-22.492-25.043-47.072-31.072-59.361-8.5796-18.318-30.376-61.68-46.608-92.288-6.7245-12.522-20.405-19.71-31.999-15.304-13.449 5.1014-25.275 13.681-35.941 22.724-11.594 9.739-19.014 19.942-23.652 33.623-5.5651 15.072 3.2463 28.521 12.29 34.55 19.71 12.753 42.898 26.666 56.579 35.478 17.159 11.13 48.463 31.536 75.825 48.695 22.029 13.217 31.536 22.724 35.478 18.782s-1.855-9.9708-10.898-26.898zm-22.26 25.74c-23.884-14.145-51.941-30.608-69.564-42.202-19.246-12.753-46.84-31.072-70.491-46.144-9.9708-5.797-23.652-9.9708-37.796 8.5796-12.058 15.768-20.174 27.826-22.956 40.579-3.4782 15.536-3.2463 27.826-1.1594 45.912 3.2463 26.666 22.724 22.956 31.768 22.26 32.231-1.855 75.825-4.4057 92.752-5.797 16-1.1594 46.376-2.5507 73.274-3.942 19.246 0 23.884-.6956 24.347-3.942.6956-3.942-4.8695-6.4926-20.174-15.304zm12.52 55.42c-22.029 14.608-50.55 33.854-76.057 50.086-18.087 11.826-47.999 31.304-71.187 47.303-8.8114 6.0289-16.463 16.232-10.898 30.144 5.5651 13.449 15.768 26.898 22.029 31.999 12.753 10.203 31.304 18.318 47.072 21.333 19.71 3.7101 24.347-8.1158 29.449-18.55 12.29-25.043 28.057-57.97 35.246-73.506 11.362-25.043 25.739-54.26 37.101-77.68 7.8839-13.913 11.362-19.014 8.3477-21.797-3.2463-2.7826-9.5071 3.0144-21.101 10.666zm-18.08-23.19c-26.898 2.3188-56.811 5.3332-71.419 6.0289-23.652 1.3913-72.115 4.4057-105.97 6.7245-5.5651.4638-17.159 3.4782-18.782 12.985-2.0869 11.362 0 25.971 3.4782 37.333 3.7101 12.29 12.29 30.376 22.956 42.898 10.666 12.29 28.057 6.4926 35.478 1.3913 23.652-15.768 53.564-35.941 69.796-46.84 13.217-8.5796 41.043-25.507 66.318-40.811 20.174-11.826 29.912-16.463 28.753-20.174-1.1594-3.2463-11.362-1.1594-30.608.4638z" fill="#a1ff20"/>
 <path d="m438.85 299.27c-5.3511 5.574-2.0066 30.323-20.289 5.1281 4.2363 14.938 7.5807 21.404-17.391 12.04 30.1 14.27 11.817 16.499-1.1148 17.168 4.4592.223 33.444-2.6755 5.3511 16.499 14.047-9.5873 19.621-10.256 15.161 4.9052 14.938-17.837 16.276-14.938 28.093 2.8985-10.702-24.08-1.3378-21.627 16.053-14.27-18.283-9.1414-21.627-13.378-2.2296-20.289-23.634 7.5807-21.404 0-8.4725-14.715-10.925 8.4725-19.398 16.499-15.161-9.3644z" fill="#efa"/>
 <path d="m175.58 281.11c1.1401-.4046 3.8892-6.7395 4.2386-9.314 2.5377-19.262 3.7146-73.078-43.416-95.889-13.994-6.7763-43.012-3.4939-67.092-27.105-6.7028-6.5924-5.3788-28.834-13.038-34.424-2.3538-1.7286-5.5718 8.2474-5.5902 12.072-.3678 55.084-1.3608 117.73 36.87 145.81 24.706 18.196 70.384 43.683 88.074 8.8451" fill="#324449"/>
 <path d="m79.401 242.95c-3.4663-6.8131-1.609-13.553 3.6778-18.628 7.5762-7.328 8.9462-3.5399 4.7903-19.299-1.8021-6.8866 2.4917-11.888 6.2614-16.642 2.9974-3.7973 11.079-5.342 15.704-4.6064 1.1585.1839 1.8573.331 2.5193.4965.5884-.3862 1.5447-.8643 3.5766-1.5447 3.9352-1.3148 8.4497-.7172 12.256.8275 1.2045.4965 1.2964-4.4133.993-10.086-15.318-3.9444-39.361-4.5696-59.874-24.678-6.7028-6.5924-5.3788-28.834-13.038-34.424-2.3538-1.7286-5.5718 8.2474-5.5902 12.072-.3678 55.084-1.3608 117.73 36.87 145.81l.4413.331c-.2574-9.3232-3.2732-19.161-8.5417-29.634" fill="#da4241"/>
 <path d="m427.48 453.81c-129.37-118.61-246.41-201.54-261.47-185.08-15.042 16.421 77.656 125.87 207.06 244.51 129.37 118.61 246.41 201.45 261.5 185.08 15.015-16.385-77.693-125.87-207.09-244.5" fill="#e89842"/>
 <path d="m565.97 675.81c11.778 7.501 15.244 23.133 7.7436 34.906l-14.551 22.849c-3.6008 5.6566-9.3036 9.6492-15.849 11.101a25.283 25.283 0 0 1-19.057-3.3574l-46.173-29.408c-11.778-7.501-15.244-23.133-7.7436-34.906l14.551-22.849c7.501-11.778 23.133-15.244 34.906-7.7436z" fill="#ff8ca6"/>
 <path d="m71.053 452.67 12.765-20.044 402.3 256.22-12.765 20.044z" fill="#cda916"/>
 <path d="m83.378 433.35 18.059-28.355 402.3 256.22-18.059 28.355z" fill="#f1c71a"/>
 <path d="m99.996 407.24 12.765-20.044 402.3 256.22-12.765 20.044z" fill="#ffd732"/>
 <path d="m70.613 453.4-70.595-88.388 112.81 22.102z" fill="#f3d79f"/>
 <path d="m83.356 460.51c1.3602.0583-7.8025-6.8561-5.6887-9.6567 2.1136-2.7997 16.012-3.1826 18.37-7.1429 2.3573-3.9596-3.9838-12.09-4.2277-16.613-.2439-4.5231-1.6235-8.5465 2.7647-10.529 4.3881-1.9827 20.524 1.3349 23.564-1.3712 3.0374-2.705-5.9031-11.133-5.3332-14.865.569-3.7329 10.42-5.256 8.7472-7.5342-1.6732-2.2802-12.926-7.5957-18.787-6.141-5.8613 1.4549-11.901 6.5436-16.381 14.87-4.479 8.3264-7.6859 26.918-10.499 35.086s-7.6243 9.9089-6.3785 13.891c1.2451 3.9838 12.488 9.9485 13.85 10.006z" fill="#f3d79f"/>
 <path d="m22.697 392.89-22.527-28.133 35.929 7.0903z"/>
 <path d="m468.51 705.81 41.713-65.497 28.774 18.325-41.713 65.497z" fill="#b7b7b7"/>
 <path d="m489.35 719.08 41.713-65.497" fill="none"/>
 <path d="m489.35 719.08 41.713-65.497" fill="none" stroke="#666" stroke-linejoin="round" stroke-width="2.001"/>
 <path d="m476.7 711.03 41.713-65.497" fill="none"/>
 <path d="m476.7 711.03 41.713-65.497" fill="none" stroke="#666" stroke-linejoin="round" stroke-width="2.001"/>
 <metadata>
  <rdf:RDF xmlns:cc="http://creativecommons.org/ns#" xmlns:dc="http://purl.org/dc/elements/1.1/" xmlns:rdf="http://www.w3.org/1999/02/22-rdf-syntax-ns#">
   <cc:Work>
    <dc:format>image/svg+xml</dc:format>
    <dc:type rdf:resource="http://purl.org/dc/dcmitype/StillImage"/>
    <cc:license rdf:resource="http://creativecommons.org/publicdomain/zero/1.0/"/>
    <dc:publisher>
     <cc:Agent rdf:about="http://openclipart.org/">
      <dc:title>Openclipart</dc:title>
     </cc:Agent>
    </dc:publisher>
    <dc:title>Lime slice</dc:title>
   </cc:Work>
   <cc:License rdf:about="http://creativecommons.org/publicdomain/zero/1.0/">
    <cc:permits rdf:resource="http://creativecommons.org/ns#Reproduction"/>
    <cc:permits rdf:resource="http://creativecommons.org/ns#Distribution"/>
    <cc:permits rdf:resource="http://creativecommons.org/ns#DerivativeWorks"/>
   </cc:License>
  </rdf:RDF>
 </metadata>
</svg>
